<?xml version="1.0" standalone="no"?>
<!DOCTYPE svg PUBLIC "-//W3C//DTD SVG 20010904//EN"
 "http://www.w3.org/TR/2001/REC-SVG-20010904/DTD/svg10.dtd">
<svg version="1.0" xmlns="http://www.w3.org/2000/svg"
 width="512.000000pt" height="512.000000pt" viewBox="0 0 512.000000 512.000000"
 preserveAspectRatio="xMidYMid meet">
<metadata>
Created by potrace 1.14, written by Peter Selinger 2001-2017
</metadata>
<g transform="translate(0.000000,512.000000) scale(0.100000,-0.100000)"
fill="#000000" stroke="none">
<path d="M3409 5101 c-158 -34 -276 -107 -321 -199 l-23 -47 -5 -1014 -5
-1013 -49 71 c-128 188 -334 334 -551 392 -114 30 -323 37 -435 15 -258 -53
-493 -196 -664 -404 l-58 -71 19 -83 c24 -114 25 -371 0 -484 -31 -146 -88
-293 -159 -410 -25 -43 -70 -84 -91 -84 -16 0 -29 126 -24 225 6 133 36 236
108 374 27 52 49 95 49 97 0 1 -21 6 -47 9 -59 8 -176 45 -184 58 -4 5 -12 7
-18 3 -38 -24 -9 134 49 260 32 72 32 72 -41 79 -65 7 -69 8 -69 17 0 11 -23
6 -32 -7 -4 -6 -8 -2 -8 8 0 10 -3 16 -8 13 -4 -2 -22 2 -41 10 l-34 14 6 103
c3 56 15 135 27 176 11 40 19 74 18 75 -2 1 -12 8 -22 16 -18 13 -19 13 -11 0
8 -13 7 -13 -8 -1 -10 8 -20 11 -24 8 -3 -4 -11 -3 -17 2 -6 5 -26 11 -44 14
-19 3 -39 13 -47 23 -7 10 -28 71 -46 137 -42 148 -41 146 -76 127 -24 -13
-28 -22 -28 -57 0 -30 -6 -47 -20 -58 -11 -9 -14 -13 -6 -9 9 4 12 2 9 -7 -2
-7 -18 -13 -34 -14 -27 0 -31 -6 -65 -85 -117 -273 -131 -599 -38 -883 75
-229 232 -451 427 -600 65 -51 178 -121 209 -131 30 -9 33 -30 33 -218 l0
-168 28 -6 c78 -17 90 -28 107 -95 l6 -25 -193 -53 c-407 -111 -449 -124 -439
-134 5 -5 47 -10 93 -9 l83 0 -52 -15 c-29 -9 -53 -19 -53 -22 0 -4 24 -16 53
-27 40 -14 77 -19 157 -19 106 1 119 4 246 61 6 3 18 -22 28 -58 26 -95 100
-263 157 -358 177 -294 426 -501 706 -587 79 -24 104 -27 248 -27 162 -1 203
5 335 46 184 58 398 200 500 332 37 47 50 56 50 31 0 -32 56 -130 104 -183 62
-67 132 -114 215 -142 87 -29 283 -29 394 -1 144 37 266 122 307 214 17 37 20
66 20 232 l0 191 63 31 c156 78 351 251 451 401 101 152 171 326 201 499 21
122 19 320 -4 442 -29 147 -54 185 -135 198 -98 16 -351 -73 -523 -183 l-53
-34 0 728 0 728 31 30 c73 68 133 192 154 317 5 32 3 37 -14 37 -11 0 -26 6
-33 13 -7 6 -20 13 -28 14 -8 1 -24 5 -36 8 -19 6 -22 1 -33 -52 -7 -32 -18
-71 -26 -88 -12 -27 -13 -9 -14 165 l-1 195 -38 50 c-42 56 -115 109 -170 125
-55 15 -162 12 -215 -6 -134 -46 -215 -195 -175 -325 14 -50 72 -118 115 -135
52 -22 122 -18 168 11 49 30 88 32 115 5 60 -60 -15 -143 -150 -168 -149 -27
-295 50 -366 194 -27 54 -29 68 -29 169 0 99 3 116 27 168 33 70 116 156 186
191 162 82 342 73 490 -26 l42 -29 0 229 c0 225 0 229 -26 280 -42 85 -135
150 -269 187 -95 26 -301 29 -406 6z m-2912 -1933 c-3 -8 -6 -5 -6 6 -1 11 2
17 5 13 3 -3 4 -12 1 -19z m2224 -787 c32 -12 84 -39 118 -61 33 -21 79 -44
103 -50 104 -28 227 -121 285 -216 46 -77 46 -77 -224 -2 -328 91 -413 112
-420 105 -3 -3 -8 -26 -10 -50 -5 -42 -4 -44 53 -97 33 -30 92 -69 134 -89 72
-35 79 -36 187 -36 l113 0 0 -285 c0 -282 0 -286 -25 -338 -90 -194 -300 -344
-485 -345 -66 -1 -190 24 -190 38 0 3 18 28 39 56 22 29 53 81 70 116 57 116
64 157 69 406 2 125 0 227 -4 227 -4 0 -36 -16 -71 -35 l-63 -36 0 40 c0 37
-4 44 -53 80 -68 52 -150 89 -227 103 -56 11 -60 13 -60 39 0 15 9 55 20 90
53 172 188 308 351 354 75 21 216 14 290 -14z m494 -421 c17 -1 16 -3 -8 -16
-28 -15 -34 -15 -117 12 -32 11 12 21 58 13 26 -4 56 -8 67 -9z m-1083 -470
c67 -31 177 -51 236 -43 31 5 32 4 32 -29 0 -48 -34 -177 -61 -230 -11 -24
-40 -67 -62 -97 l-40 -55 -44 49 c-86 94 -133 222 -133 357 0 43 2 78 4 78 2
0 33 -14 68 -30z m-834 -229 c7 -21 25 -63 42 -94 l30 -56 -57 -30 c-31 -17
-60 -31 -63 -31 -9 0 -57 89 -75 139 -12 36 -12 41 0 41 14 0 20 13 16 34 -1
4 10 5 24 2 21 -5 25 -3 25 14 0 14 7 20 23 20 19 0 26 -8 35 -39z"/>
<path d="M4415 4543 c-148 -85 -271 -156 -273 -158 -2 -2 14 -26 35 -54 34
-45 42 -50 79 -50 48 -1 131 22 195 55 90 45 199 168 224 252 7 23 6 22 -41
-7 -85 -53 -63 -17 45 71 20 17 29 49 14 47 -5 0 -129 -71 -278 -156z"/>
</g>
</svg>
